<svg id="Layer_1" data-name="Layer 1" xmlns="http://www.w3.org/2000/svg" viewBox="0 0 20.5 20.5"><title>icon-steering-wheeltest</title><path d="M10,0A10,10,0,1,0,20,10,10,10,0,0,0,10,0Zm8.24,10a8.18,8.18,0,0,1-.71,3.34l-4.4-2.55a3,3,0,0,0,.11-.79,3.26,3.26,0,0,0-2-3V1.86A8.24,8.24,0,0,1,18.24,10ZM10,8.51A1.49,1.49,0,1,1,8.51,10,1.49,1.49,0,0,1,10,8.51ZM9.21,1.8V6.86A3.26,3.26,0,0,0,6.75,10a3.51,3.51,0,0,0,.12.79l-4.4,2.55A8.24,8.24,0,0,1,6.64,2.47,8.13,8.13,0,0,1,9.21,1.8ZM10,18.24a8.22,8.22,0,0,1-6.65-3.39l4.39-2.53a3.23,3.23,0,0,0,4.52,0l4.39,2.53A8.22,8.22,0,0,1,10,18.24Z" transform="translate(0.25 0.25)" style="stroke:#fff;stroke-width:0.5px"/></svg>