<svg width="25" height="25" viewBox="0 0 25 25" fill="none" xmlns="http://www.w3.org/2000/svg">
<path d="M23.1315 22.9727C23.6612 22.8595 24.1354 22.5717 24.4753 22.1574C24.8153 21.743 25.0004 21.2269 25 20.695V8.86123C25.002 8.33309 24.821 7.81996 24.4866 7.40608C24.1522 6.99219 23.6844 6.70213 23.1598 6.58351V1.86113C23.1542 1.36924 22.9525 0.899063 22.598 0.551225C22.2435 0.203388 21.7643 0.00552972 21.2629 0L3.79383 0C3.5462 0.000520826 3.30114 0.0492204 3.07283 0.143281C2.84452 0.237341 2.63748 0.374893 2.46371 0.547978C2.28993 0.721063 2.15287 0.926243 2.06045 1.15164C1.96804 1.37705 1.9221 1.61819 1.9253 1.86113V6.55569C1.38259 6.65252 0.89205 6.93397 0.539926 7.35056C0.187801 7.76715 -0.00336212 8.2922 4.44176e-05 8.8334V20.695C-0.00273176 21.1887 0.155155 21.6703 0.450722 22.0698C0.746289 22.4694 1.16411 22.7659 1.64335 22.9163C1.69614 23.4849 1.96342 24.0138 2.39283 24.3992C2.82224 24.7846 3.38284 24.9989 3.96483 25H20.8383C21.4058 24.9913 21.9508 24.7811 22.3725 24.4084C22.7941 24.0356 23.0637 23.5256 23.1315 22.9727V22.9727ZM24.1792 8.86123V20.7228C24.1816 21.0451 24.0783 21.3595 23.8845 21.6196C23.6907 21.8798 23.4167 22.0718 23.1031 22.1674C22.9948 21.7215 22.754 21.3172 22.4112 21.0057C22.0685 20.6942 21.6392 20.4895 21.1778 20.4176V8.86123C21.1745 8.46702 21.3307 8.08763 21.6123 7.80636C21.8938 7.52508 22.2776 7.36492 22.6793 7.36103C23.0808 7.36535 23.4642 7.5257 23.7453 7.80693C24.0265 8.08816 24.1825 8.4673 24.1792 8.86123V8.86123ZM2.74612 6.58351V1.86113C2.74431 1.58537 2.85321 1.32 3.04928 1.12242C3.24535 0.924834 3.51282 0.81093 3.79383 0.805343L21.2629 0.805343C21.4028 0.805851 21.5411 0.833712 21.6698 0.887298C21.7986 0.940884 21.9151 1.01912 22.0127 1.11743C22.1102 1.21573 22.1868 1.33214 22.238 1.45984C22.2892 1.58753 22.3139 1.72396 22.3106 1.86113V6.55569C21.7577 6.641 21.254 6.91745 20.8906 7.33513C20.5271 7.75281 20.3278 8.2842 20.3287 8.8334V20.3341H4.61548V8.86123C4.63092 8.32546 4.4512 7.80185 4.10859 7.38439C3.76597 6.96693 3.2829 6.68298 2.74612 6.58351V6.58351ZM0.792501 20.695V8.86123C0.792501 8.47051 0.950694 8.0958 1.23228 7.81952C1.51387 7.54325 1.89578 7.38804 2.294 7.38804C2.69222 7.38804 3.07413 7.54325 3.35572 7.81952C3.6373 8.0958 3.7955 8.47051 3.7955 8.86123V20.3889C3.30599 20.4216 2.8396 20.6055 2.46318 20.9143C2.08675 21.223 1.81962 21.6408 1.70007 22.1076C1.43081 21.9772 1.20359 21.7762 1.04356 21.5269C0.883529 21.2775 0.796927 20.9896 0.793336 20.695H0.792501ZM3.96233 24.1955C3.55681 24.1955 3.16789 24.0374 2.88115 23.7561C2.5944 23.4747 2.4333 23.0932 2.4333 22.6953C2.4333 22.2974 2.5944 21.9158 2.88115 21.6345C3.16789 21.3531 3.55681 21.1951 3.96233 21.1951H20.8383C21.2439 21.1951 21.6328 21.3531 21.9195 21.6345C22.2063 21.9158 22.3674 22.2974 22.3674 22.6953C22.3674 23.0932 22.2063 23.4747 21.9195 23.7561C21.6328 24.0374 21.2439 24.1955 20.8383 24.1955H3.96233Z" fill="black"/>
</svg>
