<svg width="25" height="25" viewBox="0 0 25 25" fill="none" xmlns="http://www.w3.org/2000/svg">
<path d="M22.6594 6.21624V2.0111C22.7021 1.85943 22.7052 1.69964 22.6685 1.54646C22.6317 1.39328 22.5563 1.25163 22.4491 1.13456C22.2664 0.907906 22.0354 0.72316 21.7723 0.593241C21.5092 0.463323 21.2204 0.391369 20.926 0.382414C20.2811 0.409422 3.85893 0.382414 3.85893 0.382414C3.55071 0.376053 3.24766 0.46076 2.98913 0.625536C2.73059 0.790312 2.52852 1.02754 2.40916 1.30643C2.23722 2.03032 2.23722 2.78331 2.40916 3.50721V6.91355C2.40916 6.91355 0.857608 7.03058 0.56565 7.93659C0.273692 8.8426 0.320406 20.9448 0.320406 20.9448C0.529799 21.4944 0.885548 21.9788 1.3506 22.3476C1.51818 22.4584 1.71496 22.519 1.917 22.522C3.02477 22.5874 2.51343 23.7103 2.63605 24.1531C2.75867 24.5959 5.14855 24.5427 5.14855 24.5427L21.6534 24.3725C21.9872 24.1513 22.2559 23.8478 22.4324 23.4926C22.609 23.1373 22.6873 22.7428 22.6594 22.3485V22.3485C22.6594 22.3485 23.6111 22.8158 23.8814 22.1283C24.1517 21.4408 24.643 22.035 24.5821 19.3505C24.5212 16.6661 24.5821 8.87452 24.5821 8.87452C24.5821 8.87452 24.4987 7.62231 23.8814 7.2712C23.4943 7.05397 23.0842 6.87861 22.6585 6.74822L22.6594 6.21624Z" fill="#DEDEDE"/>
<path d="M23.1315 22.9727C23.6612 22.8595 24.1354 22.5717 24.4753 22.1574C24.8153 21.743 25.0004 21.2269 25 20.695V8.86123C25.002 8.33309 24.821 7.81996 24.4866 7.40608C24.1522 6.99219 23.6844 6.70213 23.1598 6.58351V1.86113C23.1542 1.36924 22.9525 0.899063 22.598 0.551225C22.2435 0.203388 21.7643 0.00552972 21.2629 0L3.79383 0C3.5462 0.000520826 3.30114 0.0492204 3.07283 0.143281C2.84452 0.237341 2.63748 0.374893 2.46371 0.547978C2.28993 0.721063 2.15287 0.926243 2.06045 1.15164C1.96804 1.37705 1.9221 1.61819 1.9253 1.86113V6.55569C1.38259 6.65252 0.89205 6.93397 0.539926 7.35056C0.187801 7.76715 -0.00336212 8.2922 4.44176e-05 8.8334V20.695C-0.00273176 21.1887 0.155155 21.6703 0.450722 22.0698C0.746289 22.4694 1.16411 22.7659 1.64335 22.9163C1.69614 23.4849 1.96342 24.0138 2.39283 24.3992C2.82224 24.7846 3.38284 24.9989 3.96483 25H20.8383C21.4058 24.9913 21.9508 24.7811 22.3725 24.4084C22.7941 24.0356 23.0637 23.5256 23.1315 22.9727V22.9727ZM24.1792 8.86123V20.7228C24.1816 21.0451 24.0783 21.3595 23.8845 21.6196C23.6907 21.8798 23.4167 22.0718 23.1031 22.1674C22.9948 21.7215 22.754 21.3172 22.4112 21.0057C22.0685 20.6942 21.6392 20.4895 21.1778 20.4176V8.86123C21.1745 8.46702 21.3307 8.08763 21.6123 7.80636C21.8938 7.52508 22.2776 7.36492 22.6793 7.36103C23.0808 7.36535 23.4642 7.5257 23.7453 7.80693C24.0265 8.08816 24.1825 8.4673 24.1792 8.86123V8.86123ZM2.74612 6.58351V1.86113C2.74431 1.58537 2.85321 1.32 3.04928 1.12242C3.24535 0.924834 3.51282 0.81093 3.79383 0.805343L21.2629 0.805343C21.4028 0.805851 21.5411 0.833712 21.6698 0.887298C21.7986 0.940884 21.9151 1.01912 22.0127 1.11743C22.1102 1.21573 22.1868 1.33214 22.238 1.45984C22.2892 1.58753 22.3139 1.72396 22.3106 1.86113V6.55569C21.7577 6.641 21.254 6.91745 20.8906 7.33513C20.5271 7.75281 20.3278 8.2842 20.3287 8.8334V20.3341H4.61548V8.86123C4.63092 8.32546 4.4512 7.80185 4.10859 7.38439C3.76597 6.96693 3.2829 6.68298 2.74612 6.58351V6.58351ZM0.792501 20.695V8.86123C0.792501 8.47051 0.950694 8.0958 1.23228 7.81952C1.51387 7.54325 1.89578 7.38804 2.294 7.38804C2.69222 7.38804 3.07413 7.54325 3.35572 7.81952C3.6373 8.0958 3.7955 8.47051 3.7955 8.86123V20.3889C3.30599 20.4216 2.8396 20.6055 2.46318 20.9143C2.08675 21.223 1.81962 21.6408 1.70007 22.1076C1.43081 21.9772 1.20359 21.7762 1.04356 21.5269C0.883529 21.2775 0.796927 20.9896 0.793336 20.695H0.792501ZM3.96233 24.1955C3.55681 24.1955 3.16789 24.0374 2.88115 23.7561C2.5944 23.4747 2.4333 23.0932 2.4333 22.6953C2.4333 22.2974 2.5944 21.9158 2.88115 21.6345C3.16789 21.3531 3.55681 21.1951 3.96233 21.1951H20.8383C21.2439 21.1951 21.6328 21.3531 21.9195 21.6345C22.2063 21.9158 22.3674 22.2974 22.3674 22.6953C22.3674 23.0932 22.2063 23.4747 21.9195 23.7561C21.6328 24.0374 21.2439 24.1955 20.8383 24.1955H3.96233Z" fill="black"/>
</svg>
